<svg xmlns="http://www.w3.org/2000/svg" version="1.1" xmlns:xlink="http://www.w3.org/1999/xlink" xmlns:svgjs="http://svgjs.dev/svgjs" width="1000" height="1000"><g clip-path="url(#SvgjsClipPath1092)"><rect width="1000" height="1000" fill="#e0f3f5"></rect><g transform="matrix(29.166666666666668,0,0,29.166666666666668,150,150)"><svg xmlns="http://www.w3.org/2000/svg" version="1.1" xmlns:xlink="http://www.w3.org/1999/xlink" xmlns:svgjs="http://svgjs.dev/svgjs" width="24px" height="24px"><svg xmlns="http://www.w3.org/2000/svg" width="24px" height="24px" viewBox="0 0 24 24" fill="none" stroke="#0ab3b8" stroke-width="2" stroke-linecap="round" stroke-linejoin="round" class="lucide lucide-ship-icon lucide-ship" data-originalstrokecolor="#9b1fe8" transform="rotate(0) scale(1, 1)"><path d="M12 10.189V14"></path><path d="M12 2v3"></path><path d="M19 13V7a2 2 0 0 0-2-2H7a2 2 0 0 0-2 2v6"></path><path d="M19.38 20A11.6 11.6 0 0 0 21 14l-8.188-3.639a2 2 0 0 0-1.624 0L3 14a11.6 11.6 0 0 0 2.81 7.76"></path><path d="M2 21c.6.5 1.2 1 2.5 1 2.5 0 2.5-2 5-2 1.3 0 1.9.5 2.5 1s1.2 1 2.5 1c2.5 0 2.5-2 5-2 1.3 0 1.9.5 2.5 1"></path></svg></svg></g></g><defs><clipPath id="SvgjsClipPath1092"><rect width="1000" height="1000" x="0" y="0" rx="500" ry="500"></rect></clipPath></defs></svg>